<svg width="146" height="30" viewBox="0 0 146 30" fill="none" xmlns="http://www.w3.org/2000/svg">
<path d="M22.5 11.25C24.5711 11.25 26.25 9.57107 26.25 7.5C26.25 5.42893 24.5711 3.75 22.5 3.75C20.4289 3.75 18.75 5.42893 18.75 7.5C18.75 9.57107 20.4289 11.25 22.5 11.25Z" fill="#3A2627"/>
<path d="M16.25 7.5C16.25 6.61 16.4412 5.76625 16.7775 5H7.5C6.12125 5 5 6.12125 5 7.5V22.5C5 23.8787 6.12125 25 7.5 25H22.5C23.8787 25 25 23.8787 25 22.5V13.2225C24.2123 13.5699 23.3609 13.7496 22.5 13.75C20.8424 13.75 19.2527 13.0915 18.0806 11.9194C16.9085 10.7473 16.25 9.1576 16.25 7.5Z" fill="#D72F33"/>
<path d="M30.8203 22V9.27273H39.9929V12.0568H34.2756V14.2443H39.5206V17.0284H34.2756V19.2159H39.968V22H30.8203ZM47.1455 14.3438V16.929H41.1796V14.3438H47.1455ZM59.2743 9.27273V22H56.3908L51.792 15.3132H51.7175V22H48.2622V9.27273H51.1954L55.7196 15.9347H55.819V9.27273H59.2743ZM64.6821 22.174C63.6464 22.174 62.7598 21.9689 62.0223 21.5588C61.2849 21.1445 60.7194 20.5686 60.3258 19.8311C59.9322 19.0895 59.7354 18.2299 59.7354 17.2521C59.7354 16.2744 59.9322 15.4168 60.3258 14.6793C60.7194 13.9377 61.2849 13.3619 62.0223 12.9517C62.7598 12.5374 63.6464 12.3303 64.6821 12.3303C65.7179 12.3303 66.6045 12.5374 67.3419 12.9517C68.0794 13.3619 68.6449 13.9377 69.0385 14.6793C69.4321 15.4168 69.6289 16.2744 69.6289 17.2521C69.6289 18.2299 69.4321 19.0895 69.0385 19.8311C68.6449 20.5686 68.0794 21.1445 67.3419 21.5588C66.6045 21.9689 65.7179 22.174 64.6821 22.174ZM64.707 19.6385C64.997 19.6385 65.2476 19.5411 65.4589 19.3464C65.6702 19.1517 65.8339 18.8741 65.9499 18.5137C66.0659 18.1532 66.1239 17.7244 66.1239 17.2273C66.1239 16.726 66.0659 16.2972 65.9499 15.9409C65.8339 15.5804 65.6702 15.3029 65.4589 15.1081C65.2476 14.9134 64.997 14.8161 64.707 14.8161C64.4004 14.8161 64.1373 14.9134 63.9177 15.1081C63.6982 15.3029 63.5304 15.5804 63.4144 15.9409C63.2984 16.2972 63.2404 16.726 63.2404 17.2273C63.2404 17.7244 63.2984 18.1532 63.4144 18.5137C63.5304 18.8741 63.6982 19.1517 63.9177 19.3464C64.1373 19.5411 64.4004 19.6385 64.707 19.6385ZM75.8384 12.4545V14.9403H69.5493V12.4545H75.8384ZM70.7674 10.1676H74.1978V18.93C74.1978 19.0626 74.2205 19.1745 74.2661 19.2656C74.3117 19.3526 74.3821 19.4189 74.4774 19.4645C74.5727 19.5059 74.6949 19.5266 74.8441 19.5266C74.9476 19.5266 75.0678 19.5142 75.2045 19.4893C75.3454 19.4645 75.4489 19.4438 75.5152 19.4272L76.0124 21.8384C75.8591 21.884 75.6395 21.9399 75.3536 22.0062C75.0719 22.0725 74.7363 22.116 74.3469 22.1367C73.5597 22.1781 72.8989 22.0974 72.3645 21.8944C71.83 21.6872 71.4282 21.362 71.1589 20.9187C70.8896 20.4754 70.7591 19.9202 70.7674 19.2532V10.1676ZM76.3632 22V12.4545H79.7936V22H76.3632ZM78.0784 11.4602C77.6144 11.4602 77.2166 11.3069 76.8852 11.0004C76.5538 10.6938 76.3881 10.325 76.3881 9.89418C76.3881 9.4633 76.5538 9.09458 76.8852 8.788C77.2166 8.48142 77.6144 8.32812 78.0784 8.32812C78.5465 8.32812 78.9443 8.48142 79.2716 8.788C79.603 9.09458 79.7687 9.4633 79.7687 9.89418C79.7687 10.325 79.603 10.6938 79.2716 11.0004C78.9443 11.3069 78.5465 11.4602 78.0784 11.4602ZM86.3837 12.4545V14.9403H79.9953V12.4545H86.3837ZM81.2133 22V12.1811C81.2133 11.3939 81.3542 10.7414 81.6359 10.2235C81.9176 9.70567 82.3153 9.3183 82.8291 9.06143C83.3428 8.80457 83.9477 8.67614 84.6437 8.67614C85.0787 8.67614 85.5013 8.70928 85.9114 8.77557C86.3257 8.84186 86.6323 8.89986 86.8312 8.94957L86.334 11.4105C86.2097 11.3732 86.0647 11.3442 85.899 11.3235C85.7333 11.2987 85.5883 11.2862 85.464 11.2862C85.1408 11.2862 84.9233 11.3546 84.8115 11.4913C84.6996 11.628 84.6437 11.8082 84.6437 12.032V22H81.2133ZM86.8324 22V12.4545H90.2628V22H86.8324ZM88.5476 11.4602C88.0836 11.4602 87.6859 11.3069 87.3544 11.0004C87.023 10.6938 86.8573 10.325 86.8573 9.89418C86.8573 9.4633 87.023 9.09458 87.3544 8.788C87.6859 8.48142 88.0836 8.32812 88.5476 8.32812C89.0158 8.32812 89.4135 8.48142 89.7408 8.788C90.0723 9.09458 90.238 9.4633 90.238 9.89418C90.238 10.325 90.0723 10.6938 89.7408 11.0004C89.4135 11.3069 89.0158 11.4602 88.5476 11.4602ZM95.7344 22.174C94.6986 22.174 93.812 21.9689 93.0746 21.5588C92.3371 21.1445 91.7716 20.5686 91.378 19.8311C90.9844 19.0895 90.7876 18.2299 90.7876 17.2521C90.7876 16.2744 90.9844 15.4168 91.378 14.6793C91.7716 13.9377 92.3371 13.3619 93.0746 12.9517C93.812 12.5374 94.6986 12.3303 95.7344 12.3303C96.6707 12.3303 97.4806 12.5001 98.1642 12.8398C98.852 13.1754 99.3844 13.6519 99.7614 14.2692C100.138 14.8823 100.329 15.6032 100.333 16.4318H97.1513C97.1057 15.9305 96.9607 15.5494 96.7163 15.2884C96.476 15.0232 96.1652 14.8906 95.7841 14.8906C95.4858 14.8906 95.2248 14.9776 95.0011 15.1516C94.7773 15.3215 94.6033 15.5804 94.479 15.9284C94.3548 16.2723 94.2926 16.7053 94.2926 17.2273C94.2926 17.7493 94.3548 18.1843 94.479 18.5323C94.6033 18.8762 94.7773 19.1351 95.0011 19.3091C95.2248 19.479 95.4858 19.5639 95.7841 19.5639C96.0368 19.5639 96.2605 19.5059 96.4553 19.3899C96.65 19.2698 96.8074 19.0958 96.9276 18.8679C97.0518 18.6359 97.1264 18.3542 97.1513 18.0227H100.333C100.321 18.8638 100.128 19.5971 99.7551 20.2227C99.3823 20.8441 98.854 21.3247 98.1705 21.6644C97.491 22.0041 96.679 22.174 95.7344 22.174ZM103.533 22.1491C102.924 22.1491 102.386 22.0497 101.917 21.8509C101.453 21.6478 101.089 21.3413 100.824 20.9311C100.559 20.521 100.426 19.9989 100.426 19.3651C100.426 18.843 100.515 18.3977 100.693 18.0289C100.871 17.6561 101.12 17.3516 101.439 17.1154C101.758 16.8793 102.129 16.699 102.551 16.5748C102.978 16.4505 103.438 16.3697 103.931 16.3324C104.465 16.291 104.894 16.2412 105.217 16.1832C105.545 16.1211 105.781 16.0362 105.926 15.9284C106.071 15.8166 106.143 15.6695 106.143 15.4872V15.4624C106.143 15.2138 106.048 15.0232 105.857 14.8906C105.667 14.758 105.422 14.6918 105.124 14.6918C104.797 14.6918 104.53 14.7643 104.322 14.9093C104.119 15.0501 103.997 15.2676 103.956 15.5618H100.799C100.84 14.9818 101.025 14.4473 101.352 13.9585C101.683 13.4654 102.166 13.0719 102.8 12.7777C103.434 12.4794 104.225 12.3303 105.174 12.3303C105.857 12.3303 106.471 12.411 107.013 12.5726C107.556 12.7301 108.018 12.9517 108.399 13.2376C108.78 13.5193 109.07 13.8507 109.269 14.2319C109.472 14.6089 109.574 15.0191 109.574 15.4624V22H106.367V20.6577H106.292C106.102 21.014 105.87 21.3019 105.596 21.5215C105.327 21.7411 105.019 21.9006 104.67 22C104.327 22.0994 103.948 22.1491 103.533 22.1491ZM104.652 19.9865C104.913 19.9865 105.157 19.9326 105.385 19.8249C105.617 19.7172 105.806 19.5618 105.951 19.3588C106.096 19.1558 106.168 18.9093 106.168 18.6193V17.8239C106.077 17.8612 105.98 17.8964 105.876 17.9295C105.777 17.9627 105.669 17.9937 105.553 18.0227C105.441 18.0517 105.321 18.0787 105.193 18.1035C105.068 18.1284 104.938 18.1512 104.801 18.1719C104.536 18.2133 104.318 18.2817 104.148 18.377C103.983 18.4681 103.858 18.582 103.776 18.7188C103.697 18.8513 103.658 19.0005 103.658 19.1662C103.658 19.4313 103.751 19.6344 103.937 19.7752C104.124 19.9161 104.362 19.9865 104.652 19.9865ZM116.03 12.4545V14.9403H109.741V12.4545H116.03ZM110.959 10.1676H114.39V18.93C114.39 19.0626 114.412 19.1745 114.458 19.2656C114.504 19.3526 114.574 19.4189 114.669 19.4645C114.765 19.5059 114.887 19.5266 115.036 19.5266C115.14 19.5266 115.26 19.5142 115.396 19.4893C115.537 19.4645 115.641 19.4438 115.707 19.4272L116.204 21.8384C116.051 21.884 115.831 21.9399 115.546 22.0062C115.264 22.0725 114.928 22.116 114.539 22.1367C113.752 22.1781 113.091 22.0974 112.556 21.8944C112.022 21.6872 111.62 21.362 111.351 20.9187C111.081 20.4754 110.951 19.9202 110.959 19.2532V10.1676ZM116.555 22V12.4545H119.985V22H116.555ZM118.27 11.4602C117.806 11.4602 117.409 11.3069 117.077 11.0004C116.746 10.6938 116.58 10.325 116.58 9.89418C116.58 9.4633 116.746 9.09458 117.077 8.788C117.409 8.48142 117.806 8.32812 118.27 8.32812C118.738 8.32812 119.136 8.48142 119.463 8.788C119.795 9.09458 119.961 9.4633 119.961 9.89418C119.961 10.325 119.795 10.6938 119.463 11.0004C119.136 11.3069 118.738 11.4602 118.27 11.4602ZM125.457 22.174C124.421 22.174 123.535 21.9689 122.797 21.5588C122.06 21.1445 121.494 20.5686 121.101 19.8311C120.707 19.0895 120.51 18.2299 120.51 17.2521C120.51 16.2744 120.707 15.4168 121.101 14.6793C121.494 13.9377 122.06 13.3619 122.797 12.9517C123.535 12.5374 124.421 12.3303 125.457 12.3303C126.493 12.3303 127.379 12.5374 128.117 12.9517C128.854 13.3619 129.42 13.9377 129.813 14.6793C130.207 15.4168 130.404 16.2744 130.404 17.2521C130.404 18.2299 130.207 19.0895 129.813 19.8311C129.42 20.5686 128.854 21.1445 128.117 21.5588C127.379 21.9689 126.493 22.174 125.457 22.174ZM125.482 19.6385C125.772 19.6385 126.023 19.5411 126.234 19.3464C126.445 19.1517 126.609 18.8741 126.725 18.5137C126.841 18.1532 126.899 17.7244 126.899 17.2273C126.899 16.726 126.841 16.2972 126.725 15.9409C126.609 15.5804 126.445 15.3029 126.234 15.1081C126.023 14.9134 125.772 14.8161 125.482 14.8161C125.175 14.8161 124.912 14.9134 124.693 15.1081C124.473 15.3029 124.305 15.5804 124.189 15.9409C124.073 16.2972 124.015 16.726 124.015 17.2273C124.015 17.7244 124.073 18.1532 124.189 18.5137C124.305 18.8741 124.473 19.1517 124.693 19.3464C124.912 19.5411 125.175 19.6385 125.482 19.6385ZM134.351 16.6307V22H130.921V12.4545H134.177V14.2692H134.277C134.484 13.6643 134.848 13.1899 135.37 12.8461C135.897 12.5022 136.51 12.3303 137.21 12.3303C137.885 12.3303 138.471 12.4856 138.969 12.7963C139.47 13.1029 139.857 13.5255 140.131 14.0641C140.408 14.6027 140.545 15.2179 140.541 15.9098V22H137.11V16.6307C137.115 16.1584 136.994 15.7876 136.75 15.5183C136.51 15.249 136.174 15.1143 135.743 15.1143C135.462 15.1143 135.215 15.1765 135.004 15.3008C134.797 15.4209 134.637 15.5949 134.525 15.8228C134.413 16.0465 134.355 16.3158 134.351 16.6307ZM143.224 22.1989C142.743 22.1989 142.331 22.0311 141.987 21.6955C141.647 21.3558 141.479 20.9435 141.484 20.4588C141.479 19.9865 141.647 19.5826 141.987 19.247C142.331 18.9114 142.743 18.7436 143.224 18.7436C143.679 18.7436 144.081 18.9114 144.429 19.247C144.781 19.5826 144.96 19.9865 144.964 20.4588C144.96 20.782 144.875 21.0761 144.709 21.3413C144.547 21.6023 144.336 21.8115 144.075 21.9689C143.814 22.1222 143.53 22.1989 143.224 22.1989Z" fill="#2C2525"/>
</svg>
