<svg width="26" height="26" viewBox="0 0 26 26" fill="none" xmlns="http://www.w3.org/2000/svg">
<rect width="26" height="26" rx="5.85" fill="#eafff3"/>
<path d="M13 7.79999C13.6896 7.79999 14.3509 8.07392 14.8385 8.56151C15.3261 9.0491 15.6 9.71042 15.6 10.4C15.6 11.0896 15.3261 11.7509 14.8385 12.2385C14.3509 12.7261 13.6896 13 13 13C12.3105 13 11.6492 12.7261 11.1616 12.2385C10.674 11.7509 10.4 11.0896 10.4 10.4C10.4 9.71042 10.674 9.0491 11.1616 8.56151C11.6492 8.07392 12.3105 7.79999 13 7.79999ZM13 18.2C13 18.2 18.2 18.2 18.2 16.9C18.2 15.34 15.665 13.65 13 13.65C10.335 13.65 7.80005 15.34 7.80005 16.9C7.80005 18.2 13 18.2 13 18.2Z" fill="#0ca84f"/>
</svg>
