<svg width="24" height="24" viewBox="0 0 24 24" fill="none" xmlns="http://www.w3.org/2000/svg">
<path fill-rule="evenodd" clip-rule="evenodd" d="M12 24C18.6274 24 24 18.6274 24 12C24 5.37258 18.6274 0 12 0C5.37258 0 0 5.37258 0 12C0 18.6274 5.37258 24 12 24ZM12 19C15.866 19 19 15.866 19 12C19 8.13401 15.866 5 12 5C8.13401 5 5 8.13401 5 12C5 15.866 8.13401 19 12 19Z" fill="white"/>
<path fill-rule="evenodd" clip-rule="evenodd" d="M13.1762 0.0577831C15.9391 0.329904 18.5222 1.5516 20.4853 3.51472L17.0264 6.97365C15.8635 5.81078 14.3334 5.08709 12.6967 4.9259C11.0601 4.7647 9.41821 5.17597 8.05082 6.08964C6.68343 7.0033 5.67514 8.36282 5.19775 9.93656C4.72036 11.5103 4.80341 13.2009 5.43276 14.7202C6.0621 16.2396 7.19879 17.4938 8.64916 18.269C10.0995 19.0442 11.7738 19.2926 13.3868 18.9717C14.9997 18.6509 16.4515 17.7807 17.4948 16.5095C18.5381 15.2382 19.1083 13.6446 19.1083 12H24C24 14.7763 23.0374 17.4666 21.2761 19.6127C19.5149 21.7588 17.064 23.2278 14.3411 23.7694C11.6182 24.311 8.79169 23.8918 6.34324 22.5831C3.89479 21.2743 1.97588 19.1571 0.913446 16.5922C-0.148984 14.0273 -0.289191 11.1733 0.516716 8.51659C1.32262 5.85987 3.02478 3.56477 5.33316 2.02237C7.64153 0.479956 10.4133 -0.214338 13.1762 0.0577831Z" fill="#C9213F"/>
</svg>
